<?xml version="1.0" encoding="UTF-8" standalone="no"?>
<svg
   aria-hidden="true"
   role="img"
   class="iconify iconify--logos"
   width="37"
   height="37"
   preserveAspectRatio="xMidYMid"
   viewBox="0 0 263.62372 263.625"
   version="1.1"
   id="svg200"
   sodipodi:docname="watch_icon.svg"
   inkscape:version="1.2.2 (b0a8486541, 2022-12-01, custom)"
   xmlns:inkscape="http://www.inkscape.org/namespaces/inkscape"
   xmlns:sodipodi="http://sodipodi.sourceforge.net/DTD/sodipodi-0.dtd"
   xmlns="http://www.w3.org/2000/svg"
   xmlns:svg="http://www.w3.org/2000/svg">
  <defs
     id="defs204" />
  <sodipodi:namedview
     id="namedview202"
     pagecolor="#ffffff"
     bordercolor="#000000"
     borderopacity="0.25"
     inkscape:showpageshadow="2"
     inkscape:pageopacity="0.0"
     inkscape:pagecheckerboard="0"
     inkscape:deskcolor="#d1d1d1"
     showgrid="false"
     inkscape:zoom="11.070641"
     inkscape:cx="14.6333"
     inkscape:cy="17.478663"
     inkscape:window-width="1366"
     inkscape:window-height="704"
     inkscape:window-x="0"
     inkscape:window-y="0"
     inkscape:window-maximized="1"
     inkscape:current-layer="svg200" />
  <path
     style="fill:#000000;stroke-width:0.905217"
     d="M 118.00502,259.53739 C 86.038267,255.67008 59.135337,241.82164 36.800388,217.73701 13.883253,193.02452 1.2105858,156.74088 3.9244978,123.6087 6.5655218,91.365594 19.013324,63.813072 40.836558,41.905834 75.555897,7.0526858 125.33822,-5.1327742 171.71661,9.8696968 217.20397,24.583962 250.95217,63.781722 258.84617,111.0687 c 2.06126,12.34784 1.41182,37.34754 -1.27174,48.95039 -11.67118,50.46296 -52.47591,89.39424 -102.89604,98.17189 -10.22075,1.77932 -27.76947,2.42364 -36.67337,1.34641 z m 28.97651,-28.43873 c 33.46534,-5.071 60.98117,-25.47907 75.70356,-56.14842 16.31332,-33.98333 12.46953,-72.647 -10.25801,-103.182396 C 196.78129,50.747033 172.29395,36.201488 146.11022,32.375505 136.05236,30.90576 118.013,31.790543 108.58656,34.215251 90.099027,38.971331 75.221527,47.34456 61.924277,60.477645 46.705706,75.508114 37.767963,91.945924 33.306217,113.11002 c -1.745269,8.27889 -1.676798,29.69999 0.12255,38.2777 6.487811,30.93056 25.79471,56.12719 53.74958,70.14648 19.094723,9.57586 38.863393,12.73751 59.803263,9.56446 z m 21.23058,-44.43214 c -3.06054,-1.5095 -43.95768,-42.22204 -45.57064,-45.36502 -0.69183,-1.34847 -1.01438,-12.07495 -1.01438,-33.75333 0,-34.877656 0.11899,-35.727806 5.40346,-38.458466 5.65019,-2.919967 12.31583,-0.95382 14.84849,4.37995 1.27081,2.67615 1.48036,7.07121 1.48036,31.041416 v 27.92366 l 19.47141,19.44291 c 12.26747,12.24944 19.81398,20.4801 20.39738,22.2466 1.35061,4.08975 -0.59921,9.2811 -4.46118,11.8783 -3.559,2.39336 -6.65361,2.58809 -10.5549,0.66405 z"
     id="path1018" />
</svg>
